<?xml version="1.0" encoding="UTF-8" standalone="no"?>
<!-- Created with Inkscape (http://www.inkscape.org/) -->

<svg
   width="53.473389mm"
   height="53.505066mm"
   viewBox="0 0 53.473389 53.505066"
   version="1.1"
   id="svg5"
   xml:space="preserve"
   inkscape:version="1.2.2 (b0a8486541, 2022-12-01)"
   sodipodi:docname="favicon-source.svg"
   xmlns:inkscape="http://www.inkscape.org/namespaces/inkscape"
   xmlns:sodipodi="http://sodipodi.sourceforge.net/DTD/sodipodi-0.dtd"
   xmlns="http://www.w3.org/2000/svg"
   xmlns:svg="http://www.w3.org/2000/svg"><sodipodi:namedview
     id="namedview7"
     pagecolor="#ffffff"
     bordercolor="#000000"
     borderopacity="0.25"
     inkscape:showpageshadow="2"
     inkscape:pageopacity="0.0"
     inkscape:pagecheckerboard="0"
     inkscape:deskcolor="#d1d1d1"
     inkscape:document-units="mm"
     showgrid="false"
     inkscape:zoom="0.76969697"
     inkscape:cx="88.996063"
     inkscape:cy="566.45669"
     inkscape:window-width="1920"
     inkscape:window-height="1008"
     inkscape:window-x="0"
     inkscape:window-y="0"
     inkscape:window-maximized="1"
     inkscape:current-layer="g7547" /><defs
     id="defs2" /><g
     inkscape:label="Layer 1"
     inkscape:groupmode="layer"
     id="layer1"
     transform="translate(-67.257585,-130.5682)"><g
       id="g7547"
       transform="translate(10.750026,29.746958)"
       style="stroke:none;stroke-opacity:1"
       inkscape:export-filename="favicon.svg"
       inkscape:export-xdpi="96"
       inkscape:export-ydpi="96"><path
         style="fill:#2074ae;fill-opacity:1;stroke:none;stroke-width:0.0555699;stroke-opacity:1"
         d="m 75.240754,126.292 -0.0556,-0.0185 v -5.38016 -5.38016 l 0.208387,-0.12424 c 0.114613,-0.0683 0.320916,-0.18635 0.458452,-0.26227 0.137535,-0.0759 0.378142,-0.21004 0.534677,-0.29803 0.15654,-0.088 0.312831,-0.15999 0.347312,-0.15999 h 0.0627 v 4.99535 4.99534 l 0.08607,0.033 c 0.04733,0.0182 1.418044,0.0314 3.046026,0.0295 l 2.959965,-0.004 0.06364,-0.0393 0.06364,-0.0393 0.01614,-0.52602 0.01614,-0.52602 0.777978,0.0111 0.777979,0.0111 0.01406,1.25772 0.01405,1.25772 -0.04476,0.08 -0.04476,0.08 -4.623256,0.0126 c -2.54279,0.007 -4.648273,0.004 -4.678847,-0.006 z"
         id="path498" /><path
         style="fill:#1e72ac;fill-opacity:1;stroke:none;stroke-width:0.0555699;stroke-opacity:1"
         d="m 86.004918,126.76896 c 0.0063,-1.68862 0.01256,-3.09523 0.01396,-3.12579 l 0.0026,-0.0556 0.777913,-0.0161 0.777912,-0.0161 v 0.0717 c 0,0.0394 0.0027,0.95571 0.0062,2.03623 l 0.0063,1.96459 -0.1296,0.17486 c -0.304284,0.41052 -1.07869,1.52607 -1.229217,1.77071 -0.08993,0.14615 -0.180119,0.26572 -0.200419,0.26571 l -0.03691,-1e-5 0.01141,-3.07022 z"
         id="path496" /><path
         style="fill:#2074ae;fill-opacity:1;stroke:none;stroke-width:0.0555699;stroke-opacity:1"
         d="m 75.218131,137.63345 c -0.01627,-0.0163 -0.03071,-2.28926 -0.0321,-5.05109 l -0.0025,-5.02151 h 4.69648 4.69648 v 2.1386 2.13861 l -0.179002,0.29258 c -0.09845,0.16092 -0.368978,0.55735 -0.601177,0.88096 -0.232199,0.32361 -0.478774,0.67995 -0.547942,0.79187 -0.06917,0.11192 -0.148727,0.20349 -0.176801,0.20349 h -0.05103 l -8.34e-4,-2.34783 -8.33e-4,-2.34783 -0.04441,-0.0699 -0.0444,-0.0699 -3.052766,0.0144 -3.052772,0.0144 -0.02778,4.22331 -0.02779,4.22331 -0.760591,0.008 c -0.418325,0.005 -0.773906,-0.005 -0.790176,-0.0215 z"
         id="path494" /><path
         style="fill:#2074ae;fill-opacity:1;stroke:none;stroke-width:0.0555699;stroke-opacity:1"
         d="m 72.210326,137.61605 c -0.01487,-0.0241 -0.02483,-4.41048 -0.02214,-9.74761 l 0.0049,-9.70386 0.482458,-0.51153 c 0.71184,-0.75473 1.055001,-1.09501 1.104297,-1.09502 h 0.04386 l -0.01424,10.48882 c -0.0078,5.76885 -0.01408,10.52119 -0.01389,10.56075 l 5.56e-4,0.0719 -0.779274,-0.01 -0.779273,-0.01 -0.02703,-0.0437 z"
         id="path492" /><path
         style="fill:#44955c;fill-opacity:1;stroke:none;stroke-width:0.0555699;stroke-opacity:1"
         d="m 85.884998,138.34571 -0.03198,-0.0517 0.487015,-0.7334 c 0.678959,-1.02245 0.66226,-0.99811 1.243188,-1.8116 0.287063,-0.40199 0.741986,-1.05215 1.010939,-1.44482 0.268953,-0.39267 0.700431,-1.01401 0.958836,-1.38078 0.454651,-0.64528 0.790627,-1.13054 1.608505,-2.32316 0.213944,-0.31197 0.666578,-0.96715 1.005849,-1.45596 0.339271,-0.48881 0.763041,-1.1013 0.94171,-1.36109 0.178674,-0.25979 0.432206,-0.62239 0.563418,-0.80577 0.131206,-0.18338 0.374441,-0.53347 0.540517,-0.77797 0.166082,-0.24451 0.478474,-0.69463 0.694213,-1.00026 0.215739,-0.30564 0.622622,-0.89329 0.904189,-1.3059 0.281567,-0.4126 0.676258,-0.97525 0.877099,-1.25032 0.200835,-0.27507 0.48413,-0.67517 0.62954,-0.88912 0.145415,-0.21394 0.362444,-0.52652 0.482291,-0.69462 l 0.217901,-0.30564 0.01218,-0.71053 0.01217,-0.71053 -0.05335,-0.0533 -0.05335,-0.0533 -7.471108,-0.0141 -7.471108,-0.0141 -0.01249,-0.62758 c -0.0069,-0.34517 0.0023,-0.70151 0.02037,-0.79187 l 0.03286,-0.16429 h 8.294732 8.294741 l 0.0315,0.12544 c 0.0173,0.069 0.0328,0.87772 0.0344,1.79718 l 0.003,1.67175 -0.40346,0.59054 c -0.59754,0.87461 -1.930328,2.7976 -3.214221,4.63757 -1.411954,2.0235 -1.679962,2.40991 -2.3216,3.34733 -0.63033,0.9209 -1.515447,2.20196 -1.958128,2.83407 -0.181936,0.25979 -0.604595,0.87244 -0.939243,1.36146 -0.599933,0.87667 -0.943716,1.37319 -1.568661,2.26559 l -0.318221,0.4544 0.04076,0.0408 0.04077,0.0408 5.306532,0.0163 5.306532,0.0163 v 0.77798 0.77798 l -6.873365,0.0141 -6.873359,0.0141 -0.03198,-0.0517 z"
         id="path490" /><path
         style="fill:#44955c;fill-opacity:1;stroke:none;stroke-width:0.0555699;stroke-opacity:1"
         d="m 82.795789,141.27326 c -0.0013,-0.008 -0.01221,-0.86012 -0.02415,-1.89377 l -0.0217,-1.87937 0.103293,-0.23229 c 0.05681,-0.12775 0.574054,-0.90078 1.149436,-1.71782 0.995168,-1.41316 1.824577,-2.60316 2.93552,-4.21176 0.534254,-0.77358 1.050588,-1.5138 1.588293,-2.27698 0.183036,-0.25979 0.480708,-0.6849 0.661488,-0.94469 0.180785,-0.25979 0.453506,-0.64739 0.606056,-0.86134 0.152545,-0.21394 0.55815,-0.80159 0.901339,-1.30589 0.343194,-0.5043 0.663488,-0.97027 0.711773,-1.0355 0.04828,-0.0652 0.119547,-0.16526 0.158368,-0.22228 0.03883,-0.057 0.295349,-0.41626 0.570048,-0.79831 0.274704,-0.38204 0.651068,-0.91578 0.836366,-1.18608 l 0.336909,-0.49146 -0.03099,-0.0807 c -0.01704,-0.0444 -0.06258,-0.0766 -0.101187,-0.0716 -0.03862,0.005 -2.340232,0.006 -5.114705,0.003 l -5.044492,-0.007 0.01542,-0.79187 0.01542,-0.79187 6.585034,-0.002 c 6.74915,-0.002 6.779708,-0.002 6.77928,0.10581 0,0.0614 -0.750283,1.17859 -1.454782,2.16689 -0.506564,0.71064 -0.58838,0.82768 -1.073622,1.53592 -0.636153,0.92849 -0.703103,1.0246 -1.161327,1.6671 -0.228876,0.32091 -0.577766,0.82104 -0.775306,1.11139 -0.378676,0.55658 -1.366653,1.98392 -1.730903,2.50065 -0.118492,0.1681 -0.343394,0.49318 -0.499774,0.72241 -0.156379,0.22922 -0.60979,0.87939 -1.007588,1.44482 -0.397791,0.56542 -0.81436,1.16557 -0.925706,1.33367 -0.111345,0.1681 -0.328057,0.48068 -0.481574,0.69463 -0.342877,0.47783 -0.504286,0.70956 -1.265071,1.81627 -0.329535,0.47936 -0.818556,1.17518 -1.086714,1.54625 l -0.487565,0.67468 0.01522,0.9266 0.01522,0.92661 h 7.585182 7.585187 l -0.01,0.80576 -0.01,0.80577 -8.42268,0.0144 c -4.632469,0.008 -8.423771,0.008 -8.425116,0 z"
         id="path488" /><path
         style="fill:#1a466f;fill-opacity:1;stroke:#ffffff;stroke-width:0.656;stroke-dasharray:none;stroke-opacity:1"
         d="m 81.270061,153.98572 c -0.03056,-0.0115 -0.248141,-0.0373 -0.483502,-0.0573 l -0.427939,-0.0364 -0.03463,-0.25947 c -0.01905,-0.14271 -0.08409,-0.49704 -0.144532,-0.78739 -0.06044,-0.29035 -0.133112,-0.66545 -0.161486,-0.83355 -0.02838,-0.1681 -0.07744,-0.41816 -0.109017,-0.5557 -0.03159,-0.13753 -0.134523,-0.63766 -0.228748,-1.1114 l -0.171327,-0.86133 -0.0641,-0.0635 -0.06409,-0.0635 -0.777978,-0.17521 c -0.427889,-0.0964 -0.821401,-0.19907 -0.874471,-0.22823 -0.05308,-0.0292 -0.128094,-0.0531 -0.166709,-0.0532 -0.05587,0 -0.747099,-0.20334 -1.824133,-0.53617 l -0.08682,-0.0268 -0.663377,0.787 c -0.364855,0.43285 -0.738396,0.87973 -0.830086,0.99307 -0.279434,0.34541 -1.268856,1.52599 -1.388215,1.65643 l -0.112173,0.12258 -1.028043,-0.51291 c -1.317452,-0.65729 -1.997589,-1.04604 -3.200889,-1.82956 -0.302544,-0.19701 -0.582222,-0.39698 -0.62151,-0.4444 l -0.07142,-0.0862 0.173067,-0.54764 c 0.1954,-0.6183 0.765364,-2.30883 0.849742,-2.52037 0.03047,-0.0764 0.147182,-0.40866 0.25935,-0.73834 l 0.203936,-0.59943 -0.449338,-0.42791 c -0.615804,-0.58643 -1.84047,-1.81245 -2.158086,-2.16046 l -0.261301,-0.28631 -0.936636,0.3189 c -0.515155,0.1754 -0.95962,0.33222 -0.987711,0.34848 -0.02809,0.0163 -0.1511,0.0605 -0.273354,0.0983 -0.122254,0.0378 -0.584873,0.19219 -1.028043,0.34306 -0.979509,0.33344 -1.129681,0.38076 -1.208446,0.38076 -0.06651,0 -0.637125,-0.83956 -1.321919,-1.94495 l -0.43032,-0.69462 -0.496323,-1.02805 c -0.272985,-0.56544 -0.52274,-1.07656 -0.555019,-1.13584 l -0.05869,-0.10779 0.188853,-0.17006 c 0.103868,-0.0935 0.350855,-0.31147 0.548859,-0.48429 1.610246,-1.40548 2.290816,-1.99627 2.524599,-2.19157 l 0.272248,-0.22744 -0.09592,-0.35605 c -0.05276,-0.19583 -0.117869,-0.40606 -0.144699,-0.46719 -0.141503,-0.32246 -0.540667,-1.85053 -0.703481,-2.69306 l -0.04792,-0.24798 -0.138925,-0.0666 c -0.166715,-0.08 -0.223418,-0.092 -2.445076,-0.51964 -0.962748,-0.18531 -1.801187,-0.34804 -1.863197,-0.36162 l -0.112744,-0.0247 -0.07141,-0.5994 -0.07141,-0.59941 -0.02982,-1.16696 -0.02982,-1.16697 0.08782,-1.05194 c 0.106863,-1.28 -0.197267,-1.13007 3.729883,-1.83876 0.998574,-0.1802 0.879821,-0.0802 1.054433,-0.88806 0.186293,-0.86191 0.266452,-1.16296 0.569697,-2.13944 0.13763,-0.44317 0.250482,-0.86594 0.250793,-0.93949 l 5.56e-4,-0.13373 -0.241907,-0.19969 c -0.13304,-0.10983 -0.702065,-0.6123 -1.264494,-1.11659 -0.56243,-0.5043 -1.221502,-1.0908 -1.464605,-1.30334 l -0.442006,-0.38642 0.03164,-0.15819 c 0.102099,-0.5105 1.846388,-3.57743 2.549759,-4.48318 l 0.254649,-0.32791 0.323217,0.10111 c 0.395691,0.12378 2.142898,0.71914 3.257619,1.11004 l 0.822752,0.28851 0.232904,-0.26827 c 0.479552,-0.55236 1.927732,-2.01482 2.419553,-2.4434 l 0.185776,-0.1619 -0.30564,-0.85979 c -0.422447,-1.18838 -1.205527,-3.55062 -1.203065,-3.62918 l 0.0021,-0.0647 0.456424,-0.28732 c 1.493858,-0.94041 4.210754,-2.40782 4.458035,-2.40782 0.0079,0 0.261056,0.29085 0.562573,0.64634 0.301522,0.35549 0.716935,0.84146 0.923144,1.07994 0.398592,0.46098 1.15182,1.36294 1.36448,1.63391 l 0.127878,0.16294 0.177757,-0.0714 c 0.09776,-0.0393 0.22777,-0.0845 0.288897,-0.10038 0.129005,-0.0336 1.28462,-0.38355 1.611527,-0.48804 0.122254,-0.0391 0.547364,-0.13924 0.944689,-0.2226 0.397325,-0.0834 0.75904,-0.16988 0.803807,-0.19228 l 0.08141,-0.0407 0.06448,-0.3286 c 0.07846,-0.39987 0.333398,-1.70168 0.466999,-2.38468 0.393396,-2.01115 0.132773,-1.80787 2.431823,-1.89684 l 0.930501,-0.036 1.305893,0.0679 1.305893,0.0679 0.05983,0.0763 c 0.06112,0.0779 0.273493,1.05463 0.698369,3.21184 l 0.238967,1.2133 0.09564,0.0512 c 0.0526,0.0282 0.407867,0.11331 0.789487,0.18924 0.381616,0.0759 0.751884,0.16216 0.822813,0.19161 0.07093,0.0294 0.386805,0.11807 0.701937,0.19692 0.315131,0.0789 0.776162,0.21751 1.024509,0.30815 l 0.451544,0.16479 0.09556,-0.0694 c 0.05256,-0.0382 0.452245,-0.50697 0.888197,-1.04183 0.981025,-1.20361 1.513168,-1.83702 1.801804,-2.14469 l 0.22228,-0.23694 0.722409,0.31848 c 0.812804,0.35833 1.299391,0.61482 2.306151,1.21564 0.652419,0.38935 0.877115,0.53014 1.597632,1.00106 l 0.29174,0.19067 v 0.0726 c 0,0.11109 -0.513194,1.63222 -1.033329,3.06282 -0.557294,1.5328 -0.54573,1.32133 -0.09407,1.72021 0.337226,0.29781 1.392079,1.36327 2.190859,2.21288 l 0.307925,0.32754 0.2451,-0.0891 c 0.7975,-0.28977 2.53304,-0.89927 3.2666,-1.1472 l 0.85427,-0.28872 0.0408,0.046 c 0.48181,0.5434 1.56428,2.33896 2.36797,3.92787 l 0.4738,0.93671 -0.10052,0.11298 c -0.0553,0.0621 -0.39138,0.36581 -0.74688,0.67482 -1.11423,0.96854 -2.34872,2.07105 -2.49201,2.2256 l -0.1376,0.14841 0.12427,0.45538 c 0.0684,0.25046 0.22015,0.76796 0.33735,1.15 0.11718,0.38205 0.28367,1.03904 0.36997,1.46 l 0.1569,0.76537 0.1157,0.0255 c 0.0636,0.014 0.71585,0.13917 1.44938,0.27805 0.73352,0.13889 1.4337,0.27715 1.55595,0.30725 0.12226,0.0301 0.48334,0.10502 0.80241,0.16649 0.31907,0.0615 0.58641,0.11805 0.59409,0.12573 0.0499,0.0499 0.14062,1.31281 0.1684,2.34521 l 0.0329,1.22254 -0.0627,0.95389 c -0.0345,0.52464 -0.0834,1.01001 -0.10879,1.07861 l -0.0461,0.12473 -0.49561,0.10456 c -0.27259,0.0575 -0.69567,0.13892 -0.94018,0.18093 -1.3832,0.23767 -2.97087,0.57293 -3.06121,0.64644 l -0.0604,0.0492 -0.07,0.40356 c -0.14196,0.81885 -0.50314,2.19168 -0.83683,3.18077 l -0.0558,0.16542 0.23611,0.21354 c 0.12986,0.11744 0.34863,0.30557 0.48616,0.41806 0.13754,0.11249 0.3626,0.30821 0.50013,0.43494 0.13754,0.12672 0.42959,0.37966 0.64902,0.56209 0.21941,0.18243 0.66572,0.56525 0.99178,0.85072 l 0.59284,0.51903 -0.0277,0.1692 c -0.0307,0.18757 -0.74252,1.68814 -1.06885,2.25307 -0.11476,0.19866 -0.24383,0.42372 -0.28683,0.50013 -0.043,0.0764 -0.17064,0.28231 -0.28364,0.45757 -0.113,0.17525 -0.36149,0.56285 -0.5522,0.86133 -0.1907,0.29848 -0.3848,0.59164 -0.43133,0.65147 l -0.0846,0.10878 -0.76342,-0.25586 c -1.38898,-0.46553 -2.42958,-0.83643 -2.49702,-0.89002 l -0.0665,-0.0529 0.0109,-3.41321 c 0.006,-1.87726 -0.002,-3.41664 -0.0168,-3.42084 -0.0153,-0.004 -0.84049,-0.0138 -1.833805,-0.0214 l -1.80602,-0.0137 -0.0084,-0.0481 c -0.0046,-0.0265 0.112357,-0.29817 0.259906,-0.6038 0.730894,-1.51397 1.204764,-3.15959 1.421424,-4.93615 l 0.0893,-0.73198 0.004,-1.05583 0.004,-1.05583 -0.0944,-0.83355 c -0.0519,-0.45845 -0.10691,-0.89606 -0.12218,-0.97247 l -0.0278,-0.13892 0.49866,-0.72241 c 0.27426,-0.39733 0.762955,-1.11252 1.085985,-1.58932 l 0.58732,-0.8669 -0.003,-2.73201 c -0.002,-1.5026 -0.0173,-2.76917 -0.0347,-2.8146 l -0.0317,-0.0826 h -3.349783 -3.349232 l -0.07479,-0.0901 c -0.669578,-0.8068 -3.29589,-2.55505 -4.745615,-3.15901 -0.09169,-0.0382 -0.241729,-0.10063 -0.333419,-0.13874 -1.364192,-0.567 -2.864891,-0.94554 -4.528609,-1.14232 l -0.69428,-0.0821 h -1.012367 -1.012367 l -0.877354,0.11221 c -1.553068,0.19864 -2.969306,0.56136 -4.155974,1.06442 -0.152817,0.0648 -0.365372,0.15505 -0.472344,0.2006 -0.884835,0.37679 -2.477318,1.2986 -3.047293,1.76393 -0.05082,0.0415 -0.297538,0.23949 -0.548259,0.43999 -0.25072,0.2005 -0.75919,0.65699 -1.129936,1.01443 l -0.67408,0.6499 -0.530981,0.6632 c -0.292042,0.36477 -0.768199,1.01626 -1.058124,1.44776 l -0.527136,0.78455 -0.43494,0.88912 c -0.239217,0.48902 -0.475212,1.00165 -0.524436,1.13918 -0.714073,1.99523 -0.939781,2.98224 -1.111931,4.86237 l -0.09159,1.00026 0.03556,0.77798 c 0.163659,3.58082 1.491536,7.10473 3.641591,9.66401 2.93049,3.48826 6.597799,5.46385 11.04212,5.94841 l 0.78947,0.0861 h 0.843546 0.84354 l 0.506431,-0.0611 c 1.391448,-0.16777 2.473889,-0.39355 3.562237,-0.74302 l 0.610736,-0.19611 5.023753,-0.001 5.023751,-0.001 0.0336,0.0355 c 0.0185,0.0195 -0.35067,0.40401 -0.820384,0.85438 l -0.854021,0.81885 0.08435,0.27214 c 0.0464,0.14968 0.190232,0.57222 0.319638,0.93898 0.613314,1.73827 1.101717,3.21857 1.075767,3.26056 -0.17604,0.28484 -4.551148,2.76878 -4.876821,2.76878 -0.08903,0 -0.250787,-0.18861 -2.656914,-3.09803 -0.392652,-0.47478 -0.290903,-0.45867 -1.156949,-0.18316 -0.828676,0.26362 -1.457244,0.4343 -2.377265,0.6455 l -0.682387,0.15664 -0.02703,0.11423 c -0.04008,0.16935 -0.412662,2.15673 -0.500646,2.67045 -0.04187,0.24451 -0.103488,0.54458 -0.136918,0.66684 -0.03343,0.12225 -0.0922,0.40983 -0.130584,0.63905 l -0.0698,0.41678 -0.413301,0.045 c -0.421787,0.0459 -4.368973,0.10551 -4.4699,0.0675 z"
         id="path348" /></g></g></svg>
